<svg xmlns="http://www.w3.org/2000/svg" viewBox="0 0 64 64">
  <defs>
    <linearGradient id="crystalTop" x1="0" y1="0" x2="0" y2="1">
      <stop offset="0" stop-color="#ffffff"/>
      <stop offset="1" stop-color="#b3ecff"/>
    </linearGradient>
    <linearGradient id="crystalLeft" x1="0" y1="0" x2="0" y2="1">
      <stop offset="0" stop-color="#a8e8ff"/>
      <stop offset="1" stop-color="#5ecbf5"/>
    </linearGradient>
    <linearGradient id="crystalRight" x1="0" y1="0" x2="0" y2="1">
      <stop offset="0" stop-color="#7fe0ff"/>
      <stop offset="1" stop-color="#3ab6ea"/>
    </linearGradient>
    <linearGradient id="crystalMid" x1="0" y1="0" x2="0" y2="1">
      <stop offset="0" stop-color="#d8f6ff"/>
      <stop offset="1" stop-color="#6fd4f5"/>
    </linearGradient>
  </defs>
  <polygon points="32,8 50,24 32,56 14,24" fill="url(#crystalMid)" stroke="#29b6f6" stroke-width="2.5" stroke-linejoin="round"/>
  <polygon points="32,8 50,24 40,24 32,8" fill="url(#crystalTop)" stroke="#29b6f6" stroke-width="2" stroke-linejoin="round"/>
  <polygon points="32,8 24,24 14,24 32,8" fill="url(#crystalTop)" stroke="#29b6f6" stroke-width="2" stroke-linejoin="round"/>
  <polygon points="24,24 40,24 32,8" fill="url(#crystalTop)" stroke="#29b6f6" stroke-width="2" stroke-linejoin="round"/>
  <polygon points="14,24 24,24 32,56" fill="url(#crystalLeft)" stroke="#29b6f6" stroke-width="2" stroke-linejoin="round"/>
  <polygon points="40,24 50,24 32,56" fill="url(#crystalRight)" stroke="#29b6f6" stroke-width="2" stroke-linejoin="round"/>
  <polygon points="24,24 40,24 32,56" fill="url(#crystalMid)" stroke="#29b6f6" stroke-width="2" stroke-linejoin="round"/>
  <path d="M28 12 L22.5 23" fill="none" stroke="#ffffff" stroke-width="2.5" stroke-linecap="round" opacity="0.8"/>
</svg>
