<svg xmlns="http://www.w3.org/2000/svg" viewBox="0 0 64 64">
  <defs>
    <linearGradient id="hpFill" x1="0" y1="0" x2="0" y2="1">
      <stop offset="0" stop-color="#ffaebd"/>
      <stop offset="1" stop-color="#ff5a7a"/>
    </linearGradient>
    <linearGradient id="hpShine" x1="0" y1="0" x2="0" y2="1">
      <stop offset="0" stop-color="#ffffff" stop-opacity="0.9"/>
      <stop offset="1" stop-color="#ffffff" stop-opacity="0"/>
    </linearGradient>
  </defs>
  <path d="M32 55 C10 39 7 25 15 18 C22 12 30 15 32 22 C34 15 42 12 49 18 C57 25 54 39 32 55 Z"
        fill="url(#hpFill)" stroke="#d81b60" stroke-width="2.5" stroke-linejoin="round"/>
  <path d="M20 22 C17 24 16 29 18 33 C13 27 15 20 20 18 C23 16.5 26 17 27.5 19 C24 18.5 21.5 20 20 22 Z"
        fill="url(#hpShine)"/>
</svg>
